<svg id="Layer_2" data-name="Layer 2" xmlns="http://www.w3.org/2000/svg" xmlns:xlink="http://www.w3.org/1999/xlink" viewBox="0 0 1027.589 1002.487"><defs><style>.cls-1{fill:none;}.cls-2{clip-path:url(#clip-path);}.cls-3{fill:url(#linear-gradient);}</style><clipPath id="clip-path" transform="translate(30.816 -8.905)"><path class="cls-1" d="M242.1,306.967H403.3v13.084a55.083,55.083,0,0,0-9.754.443c-4.943.667-8.316,1.095-11.6,2.874-9.5,5.143-11.052,17.532-11.133,18.266a27.56,27.56,0,0,0,2.55,14.435c6.135,13.384,44.332,103.033,97.046,226.458L571.2,326.536a101.939,101.939,0,0,0,2.755-11.472,60.5,60.5,0,0,0,1.346-12.585c-.066-4.551-.121-8.361-2.1-12.886a25.021,25.021,0,0,0-8.038-10.138,27.947,27.947,0,0,0-8.586-4.036A54.976,54.976,0,0,0,542.053,273c-2.815-.192-5.168-.217-6.829-.2V259.719H650.636V272.8a59.281,59.281,0,0,0-7.884.438,55.516,55.516,0,0,0-11.9,2.721,49.035,49.035,0,0,0-17.743,11.5A55.578,55.578,0,0,0,601.7,303.371c-49.683,125.6-99.315,251.745-149,377.349H429.17c-47.715-109.988-95.377-220.512-143.092-330.5a61.533,61.533,0,0,0-5.89-10.367,48.655,48.655,0,0,0-7.052-8.294,41.071,41.071,0,0,0-25.715-11.241,52.487,52.487,0,0,0-6.325-.267V306.967Zm208.046,1.022v9.5h33.533q-.009,106.368-.019,212.735Q516,448.693,548.349,367.161c.052-16.371-.148-33.481-.1-49.851a55.511,55.511,0,0,1,13.665-.937c.254.013,1.993.107,4.293.063.4-.008.242,0,2.083.072.736-2.741,1.661-5.717,2.427-8.519Zm97.939,147.853c-21.3,52.077-42.639,107.773-63.944,159.851-.164,19.762-.3,35.907-.462,55.67-11.1.135-7.909.243-19.781.073-1.086,2.786-2.67,6.766-3.692,9.337,44.338.188,78.614-.251,122.951-.064,0-3.115,0-6.183,0-9.3-11.884.038-23.763-.047-35.666-.047C547.684,599.442,547.883,527.762,548.081,455.842ZM604.8,309.176c-1.48,4.106-3.042,8.593-5.031,12.8,4.68,1.319,8.679,2.889,15.781,7.218a74.723,74.723,0,0,1,22.2,20.937c6.694,9.6,9.34,18.232,11.5,25.484,3.471,11.672,4.066,20.871,4.549,29.116a137.318,137.318,0,0,1-2.747,40.2c-1.985,8.782-3.9,17.276-9.866,27.163a72.752,72.752,0,0,1-18.152,20.332c-6.719,5.053-21.114,13.947-40.326,13.953a55.352,55.352,0,0,1-25.363-5.473,52.7,52.7,0,0,1-11.393-7.621q.257,5.362.511,10.724a41.952,41.952,0,0,0,5.655,4.533c6.532,4.364,13,5.957,18.97,6.943,16.406,2.708,31.876,1.247,37.9.552a143.994,143.994,0,0,0,31.258-6.684,118.963,118.963,0,0,0,28.337-13.39,106.5,106.5,0,0,0,16.768-13.406,97.325,97.325,0,0,0,13.9-17.453,102.5,102.5,0,0,0,12.965-33.687,108.321,108.321,0,0,0,1.141-34.055c-.936-8.58-2.136-18.773-7.754-30.771a90.349,90.349,0,0,0-15.144-22.17,95.249,95.249,0,0,0-17.264-14.66,102.467,102.467,0,0,0-18.214-9.5,128.92,128.92,0,0,0-18.781-6.182,174.85,174.85,0,0,0-25.4-4.372C607,309.289,607,309.331,604.8,309.176Z"/></clipPath><linearGradient id="linear-gradient" x1="64" y1="510.149" x2="901.957" y2="510.149" gradientUnits="userSpaceOnUse"><stop offset="0" stop-color="#d2a238"/><stop offset="0.042" stop-color="#e2c878"/><stop offset="0.08" stop-color="#ffeb8f"/><stop offset="0.133" stop-color="#d2a238"/><stop offset="0.179" stop-color="#ffeb8f"/><stop offset="0.247" stop-color="#f1d463"/><stop offset="0.302" stop-color="#d2a238"/><stop offset="0.374" stop-color="#f1d463"/><stop offset="0.439" stop-color="#d2a238"/><stop offset="0.511" stop-color="#ffeb8f"/><stop offset="0.579" stop-color="#d2a238"/><stop offset="0.647" stop-color="#e2c878"/><stop offset="0.711" stop-color="#ffeb8f"/><stop offset="0.788" stop-color="#d2a238"/><stop offset="0.859" stop-color="#f1d463"/><stop offset="0.895" stop-color="#f2d565"/><stop offset="0.908" stop-color="#f4d96c"/><stop offset="0.917" stop-color="#f8df77"/><stop offset="0.925" stop-color="#fde788"/><stop offset="0.927" stop-color="#ffeb8f"/><stop offset="1" stop-color="#d2a238"/></linearGradient></defs><g class="cls-2"><rect class="cls-3" x="64" y="109.553" width="837.957" height="801.191" transform="translate(191.596 -123.023) rotate(16.134)"/></g></svg>